HIERARCHY
ROOT 00
{
	OFFSET -0.002791 -0.224826 0.020408
	CHANNELS 6 Xposition Yposition Zposition Xrotation Yrotation Zrotation
	JOINT 01
	{
		OFFSET 0.058358 -0.086425 -0.005066
		CHANNELS 3 Xrotation Yrotation Zrotation
		JOINT 04
		{
			OFFSET 0.047997 -0.398072 0.009274
			CHANNELS 3 Xrotation Yrotation Zrotation
			JOINT 07
			{
				OFFSET -0.015454 -0.415524 -0.033259
				CHANNELS 3 Xrotation Yrotation Zrotation
				JOINT 10
				{
					OFFSET 0.042898 -0.057861 0.121173
					CHANNELS 3 Xrotation Yrotation Zrotation
					End Site
					{
						OFFSET 0 0 0
					}
				}
			}
		}
	}
	JOINT 02
	{
		OFFSET -0.054309 -0.083736 -0.004465
		CHANNELS 3 Xrotation Yrotation Zrotation
		JOINT 05
		{
			OFFSET -0.049049 -0.402887 0.001841
			CHANNELS 3 Xrotation Yrotation Zrotation
			JOINT 08
			{
				OFFSET 0.018219 -0.417537 -0.031837
				CHANNELS 3 Xrotation Yrotation Zrotation
				JOINT 11
				{
					OFFSET -0.024752 -0.052174 0.124898
					CHANNELS 3 Xrotation Yrotation Zrotation
					End Site
					{
						OFFSET 0 0 0
					}
				}
			}
		}
	}
	JOINT 03
	{
		OFFSET -0.003313 0.105218 -0.024181
		CHANNELS 3 Xrotation Yrotation Zrotation
		JOINT 06
		{
			OFFSET 0.008242 0.139300 0.005812
			CHANNELS 3 Xrotation Yrotation Zrotation
			JOINT 09
			{
				OFFSET 0.001384 0.053964 0.012859
				CHANNELS 3 Xrotation Yrotation Zrotation
				JOINT 12
				{
					OFFSET -0.007522 0.222832 -0.031530
					CHANNELS 3 Xrotation Yrotation Zrotation
					JOINT 15
					{
						OFFSET 0.008750 0.076964 0.054343
						CHANNELS 3 Xrotation Yrotation Zrotation
						End Site
						{
							OFFSET 0 0 0
						}
					}
				}
				JOINT 13
				{
					OFFSET 0.076340 0.121923 -0.029341
					CHANNELS 3 Xrotation Yrotation Zrotation
					JOINT 16
					{
						OFFSET 0.095791 0.030476 -0.005519
						CHANNELS 3 Xrotation Yrotation Zrotation
						JOINT 18
						{
							OFFSET 0.271991 -0.017478 -0.025557
							CHANNELS 3 Xrotation Yrotation Zrotation
							JOINT 20
							{
								OFFSET 0.256962 0.009847 -0.001331
								CHANNELS 3 Xrotation Yrotation Zrotation
								JOINT 22
								{
									OFFSET 0.082075 -0.009379 -0.013521
									CHANNELS 3 Xrotation Yrotation Zrotation
									End Site
									{
										OFFSET 0 0 0
									}
								}
							}
						}
					}
				}
				JOINT 14
				{
					OFFSET -0.083976 0.118456 -0.034303
					CHANNELS 3 Xrotation Yrotation Zrotation
					JOINT 17
					{
						OFFSET -0.098896 0.033516 -0.007303
						CHANNELS 3 Xrotation Yrotation Zrotation
						JOINT 19
						{
							OFFSET -0.261858 -0.015428 -0.017651
							CHANNELS 3 Xrotation Yrotation Zrotation
							JOINT 21
							{
								OFFSET -0.261658 0.005727 -0.009009
								CHANNELS 3 Xrotation Yrotation Zrotation
								JOINT 23
								{
									OFFSET -0.078143 -0.005829 -0.009386
									CHANNELS 3 Xrotation Yrotation Zrotation
									End Site
									{
										OFFSET 0 0 0
									}
								}
							}
						}
					}
				}
			}
		}
	}
}
MOTION
Frames: 8
Frame Time: 1.00000000
-0.002791 -0.224826 0.020408 9.486290 21.607307 -0.805373 -65.209351 -0.631324 25.756262 44.299129 10.145089 3.360202 16.516916 -1.158296 -17.106218 0.000000 0.000000 0.000000 -62.189720 -5.554769 -37.352703 72.733749 -8.580228 -8.885636 -14.877767 -2.170046 26.228273 0.000000 0.000000 0.000000 27.590082 0.333145 -1.647330 7.940843 0.049860 -2.456307 7.944249 -0.048743 -2.438478 -12.400512 -3.143679 2.306149 -0.000000 0.000000 -0.000000 2.341650 -3.427425 1.105925 9.204476 16.849995 -45.465916 -164.521774 -79.479591 -166.329056 6.534596 3.699372 31.440678 0.000000 0.000000 0.000000 0.773704 1.705343 -3.823020 -26.509249 -55.125195 32.657829 -175.114227 57.019665 176.155914 -27.645357 16.266371 6.816605 0.000000 0.000000 0.000000 
-0.002791 -0.224826 0.020408 9.256290 20.698030 -0.023657 -64.331055 -0.935386 25.241064 45.157925 10.638471 3.301724 17.111494 -0.778227 -17.853737 0.000000 -0.000000 0.000000 -61.969002 -4.517140 -37.720161 72.282051 -7.986023 -8.867273 -14.356833 -2.030648 26.442989 0.000000 0.000000 0.000000 27.564241 0.297697 -1.713082 8.061496 0.039543 -2.339282 8.064371 -0.051490 -2.322516 -11.857204 -2.873955 2.056188 -0.000000 -0.000000 -0.000000 2.361765 -1.840605 2.204762 -0.297171 25.643574 -43.519867 -173.123657 -67.661682 -174.653854 5.922290 3.451762 32.875492 0.000000 -0.000000 -0.000000 0.774530 1.756437 -3.589826 -23.851149 -57.383911 34.289593 -175.114197 57.019676 176.155899 -28.706440 16.385696 7.994357 -0.000000 0.000000 0.000000 
-0.002791 -0.224826 0.020408 8.607895 19.040613 0.954318 -63.423744 -0.686484 25.097176 46.594788 11.014145 3.524330 16.422045 0.118595 -18.627047 0.000000 0.000000 0.000000 -61.730007 -3.403637 -37.856995 71.504402 -6.904763 -8.895294 -13.415618 -1.780461 26.306864 0.000000 0.000000 0.000000 27.852415 0.121278 -1.673533 8.172062 0.010567 -2.106587 8.173734 -0.069208 -2.092648 -11.772002 -2.654220 2.502575 0.000000 -0.000000 0.000000 0.999944 -0.339198 3.124334 -20.387911 23.506308 -36.483730 -174.960251 -60.839142 -176.327499 5.961025 3.268170 34.924095 -0.000000 0.000000 0.000000 0.761553 1.824556 -3.180264 -21.210442 -60.313969 35.865067 -175.114243 57.019665 176.155914 -30.462011 16.276823 9.285759 0.000000 0.000000 -0.000000 
-0.002791 -0.224826 0.020408 7.713874 16.444244 1.874445 -62.119167 -0.363719 25.473074 48.363926 11.286838 3.916160 14.829052 1.109752 -19.793217 0.000000 0.000000 0.000000 -61.631672 -2.420295 -37.590961 70.395103 -5.029099 -8.963765 -12.065638 -1.625490 25.723585 0.000000 0.000000 0.000000 28.336582 -0.200921 -1.507824 8.244971 -0.037685 -1.741333 8.245277 -0.101549 -1.732312 -12.454047 -2.512261 3.527847 0.000000 -0.000000 0.000000 -1.444675 0.638795 3.554387 -42.040901 8.908058 -29.902565 -174.559067 -62.641384 -175.969757 6.489113 2.667166 36.906757 -0.000000 0.000000 0.000000 0.733809 1.895409 -2.658898 -19.434788 -63.323460 36.894749 -175.114227 57.019665 176.155914 -32.907742 15.838414 10.636095 -0.000000 0.000000 0.000000 
-0.002791 -0.224826 0.020408 6.986322 12.686433 2.469970 -59.954384 -0.511098 26.508780 50.026276 11.562293 4.290200 12.615473 1.593685 -21.862917 0.000000 -0.000000 0.000000 -61.934364 -1.684323 -36.627163 68.882927 -2.394292 -9.051623 -10.346596 -1.533160 24.745319 0.000000 0.000000 0.000000 28.653799 -0.651314 -1.205660 8.298442 -0.103614 -1.236496 8.297771 -0.146073 -1.234675 -13.745097 -2.327737 4.612925 -0.000000 0.000000 0.000000 -4.126338 1.004373 3.514367 -58.976467 -11.085574 -29.498470 -170.604691 -73.177116 -172.264374 6.767517 0.299529 37.926609 -0.000000 -0.000000 0.000000 0.699390 1.945382 -2.196243 -19.475254 -65.434723 36.714619 -175.114243 57.019665 176.155914 -35.445374 15.090049 11.827257 0.000000 0.000000 0.000000 
-0.002791 -0.224826 0.020408 6.712526 7.789138 2.670360 -56.788956 -1.028695 28.250492 51.240993 11.808206 4.518055 9.604551 1.377758 -24.842943 0.000000 0.000000 0.000000 -62.721027 -1.260230 -34.859966 66.866310 0.250267 -9.135346 -8.384146 -0.801085 23.636074 0.000000 0.000000 0.000000 28.458843 -1.161050 -0.809186 8.385437 -0.178664 -0.636438 8.384717 -0.195574 -0.643618 -15.095496 -1.943191 5.270481 -0.000000 0.000000 0.000000 -6.245731 0.968993 3.290967 -72.146095 -27.650620 -34.539345 -87.822739 -87.139534 -89.861572 6.390798 -4.486782 37.129681 0.000000 0.000000 -0.000000 0.670999 1.957761 -1.956896 -21.504826 -65.932854 35.120743 -175.114243 57.019665 176.155914 -37.183640 14.192808 12.609596 0.000000 0.000000 0.000000 
-0.002791 -0.224826 0.020408 6.884740 2.207921 2.705918 -52.905872 -1.230335 30.393682 51.737591 11.777078 4.540160 6.006022 0.961384 -28.087822 0.000000 0.000000 0.000000 -63.825676 -1.121991 -32.618099 64.314896 1.772876 -9.208505 -6.347078 1.559606 22.695915 0.000000 -0.000000 0.000000 27.695501 -1.632444 -0.406152 8.551119 -0.249095 -0.037242 8.551369 -0.240446 -0.053976 -16.019505 -1.317096 5.401033 -0.000000 0.000000 0.000000 -7.528091 0.824660 3.167724 -81.975739 -37.732201 -40.935493 -8.250083 -70.483009 -10.726067 5.981955 -9.712587 34.085289 0.000000 0.000000 -0.000000 0.655820 1.935259 -1.979805 -24.437195 -64.932106 32.948471 -175.114197 57.019665 176.155899 -37.573303 13.350238 12.917228 0.000000 0.000000 -0.000000 
-0.002791 -0.224826 0.020408 7.349548 -3.261005 2.919530 -48.965851 -0.728994 32.219139 51.589245 11.222842 4.426698 2.372190 1.109915 -30.655367 0.000000 -0.000000 0.000000 -65.031662 -1.145625 -30.496437 61.450752 1.852192 -9.277052 -4.374929 5.488027 21.979815 0.000000 0.000000 0.000000 26.616936 -2.019769 -0.044256 8.793624 -0.306024 0.467580 8.795579 -0.276975 0.441900 -16.463068 -0.564937 5.270028 -0.000000 0.000000 0.000000 -8.244939 0.772927 3.224174 -88.782829 -43.706680 -45.575272 -3.763292 -51.401726 -6.702131 7.643032 -11.444867 29.659246 -0.000000 -0.000000 0.000000 0.651430 1.896534 -2.167571 -26.995766 -63.270702 31.217033 -175.114227 57.019749 176.155914 -36.773155 12.692685 12.928582 -0.000000 0.000000 0.000000 
